<?xml version="1.0" ?><svg height="32" id="icon" viewBox="0 0 32 32" width="32" xmlns="http://www.w3.org/2000/svg"><defs><style>.cls-1{fill:none;}</style></defs><title/><path d="M23,28a5.0057,5.0057,0,0,1-5-5h2a3,3,0,1,0,3-3H22V18h1a5,5,0,0,1,0,10Z"/><rect height="2" width="4" x="16" y="18"/><rect height="2" width="4" x="10" y="18"/><rect height="2" width="4" x="4" y="18"/><path d="M21,15H20V13h1a3,3,0,1,0-3-3H16a5,5,0,1,1,5,5Z"/><rect height="2" width="4" x="14" y="13"/><rect height="2" width="4" x="8" y="13"/><rect class="cls-1" data-name="&lt;Transparent Rectangle&gt;" height="32" id="_Transparent_Rectangle_" width="32"/></svg>